<svg width="900" height="76" viewBox="0 0 900 76" xmlns="http://www.w3.org/2000/svg" role="img">
  <defs></defs>
  <rect x="0" y="0" width="900" height="76" fill="#020202"/><line x1="0" y1="0" x2="900" y2="0" stroke="#3d4148" stroke-opacity="0.035" stroke-width="1"/><line x1="0" y1="6" x2="900" y2="6" stroke="#3d4148" stroke-opacity="0.035" stroke-width="1"/><line x1="0" y1="12" x2="900" y2="12" stroke="#3d4148" stroke-opacity="0.035" stroke-width="1"/><line x1="0" y1="18" x2="900" y2="18" stroke="#3d4148" stroke-opacity="0.035" stroke-width="1"/><line x1="0" y1="24" x2="900" y2="24" stroke="#3d4148" stroke-opacity="0.035" stroke-width="1"/><line x1="0" y1="30" x2="900" y2="30" stroke="#3d4148" stroke-opacity="0.035" stroke-width="1"/><line x1="0" y1="36" x2="900" y2="36" stroke="#3d4148" stroke-opacity="0.035" stroke-width="1"/><line x1="0" y1="42" x2="900" y2="42" stroke="#3d4148" stroke-opacity="0.035" stroke-width="1"/><line x1="0" y1="48" x2="900" y2="48" stroke="#3d4148" stroke-opacity="0.035" stroke-width="1"/><line x1="0" y1="54" x2="900" y2="54" stroke="#3d4148" stroke-opacity="0.035" stroke-width="1"/><line x1="0" y1="60" x2="900" y2="60" stroke="#3d4148" stroke-opacity="0.035" stroke-width="1"/><line x1="0" y1="66" x2="900" y2="66" stroke="#3d4148" stroke-opacity="0.035" stroke-width="1"/>
  
    
    <text x="24" y="34" font-family="'JetBrains Mono', ui-monospace, monospace" font-size="11" font-weight="700" fill="#6b7280" letter-spacing="1.5">BACKEND</text>
    <text x="24" y="60" font-family="Georgia, 'Cinzel Decorative', serif" font-size="14" fill="#d7dade">Laravel · PHP · REST APIs</text>
    <line x1="225" y1="16" x2="225" y2="60" stroke="#3d4148" stroke-opacity="0.25"/>
    <text x="249" y="34" font-family="'JetBrains Mono', ui-monospace, monospace" font-size="11" font-weight="700" fill="#6b7280" letter-spacing="1.5">WEB APPLICATIONS</text>
    <text x="249" y="60" font-family="Georgia, 'Cinzel Decorative', serif" font-size="14" fill="#d7dade">Frontend · Backend</text>
    <line x1="450" y1="16" x2="450" y2="60" stroke="#3d4148" stroke-opacity="0.25"/>
    <text x="474" y="34" font-family="'JetBrains Mono', ui-monospace, monospace" font-size="11" font-weight="700" fill="#6b7280" letter-spacing="1.5">DATABASES</text>
    <text x="474" y="60" font-family="Georgia, 'Cinzel Decorative', serif" font-size="14" fill="#d7dade">MySQL · MariaDB · CRUD</text>
    <line x1="675" y1="16" x2="675" y2="60" stroke="#3d4148" stroke-opacity="0.25"/>
    <text x="699" y="34" font-family="'JetBrains Mono', ui-monospace, monospace" font-size="11" font-weight="700" fill="#6b7280" letter-spacing="1.5">AI INTEGRATION</text>
    <text x="699" y="60" font-family="Georgia, 'Cinzel Decorative', serif" font-size="14" fill="#d7dade">AI APIs · AI Applications</text>
  
    <rect x="1" y="1" width="898" height="74" fill="none" stroke="#6b7280" stroke-width="1" stroke-opacity="0.6"/>
    <rect x="874" y="6" width="14" height="3" fill="#6b7280" opacity="0.7"/>
    <rect x="858" y="6" width="8" height="3" fill="#3d4148" opacity="0.5"/>
    <text x="8" y="70" font-family="'JetBrains Mono', ui-monospace, monospace" font-size="8" fill="#6b7280" opacity="0.5">0x03</text>
    <path d="M 0,0 L 12,0 L 12,2 L 2,2 L 2,12 L 0,12 Z" fill="#6b7280" opacity="0.8"/>
    <path d="M 900,76 L 888,76 L 888,74 L 898,74 L 898,64 L 900,64 Z" fill="#6b7280" opacity="0.8"/>
</svg>