<svg width="900" height="93" viewBox="0 0 900 93" xmlns="http://www.w3.org/2000/svg" role="img">
  <defs><clipPath id="clip-p9"><path d="M 8.37,0 L 886.608,0 Q 900,0 900,8.37 L 900,84.63 Q 900,93 891.63,93 L 11.717999999999998,93 Q 0,93 0,82.119 L 0,8.37 Q 0,0 8.37,0 Z"/></clipPath><linearGradient id="org-grad-p9" x1="0" y1="0" x2="1" y2="1"><stop offset="0%" stop-color="#0f5c30" stop-opacity="0.12"/><stop offset="100%" stop-color="#22c55e" stop-opacity="0.04"/></linearGradient></defs>
  <path d="M 8.37,0 L 886.608,0 Q 900,0 900,8.37 L 900,84.63 Q 900,93 891.63,93 L 11.717999999999998,93 Q 0,93 0,82.119 L 0,8.37 Q 0,0 8.37,0 Z" fill="#020a06"/><path d="M 8.37,0 L 886.608,0 Q 900,0 900,8.37 L 900,84.63 Q 900,93 891.63,93 L 11.717999999999998,93 Q 0,93 0,82.119 L 0,8.37 Q 0,0 8.37,0 Z" fill="url(#org-grad-p9)"/>
  <g clip-path="url(#clip-p9)">
    
    
    <text x="28" y="34" font-family="'JetBrains Mono', ui-monospace, monospace" font-size="14" font-weight="700" fill="#22c55e" letter-spacing="1.5">BUILDING</text>
    <text x="28" y="58" font-family="Georgia, 'Cinzel Decorative', serif" font-size="17" fill="#dcf7e6">Production features at ONEPIXEL TECHNOLOGIES</text></g>
  
    <path d="M 8.37,0 L 886.608,0 Q 900,0 900,8.37 L 900,84.63 Q 900,93 891.63,93 L 11.717999999999998,93 Q 0,93 0,82.119 L 0,8.37 Q 0,0 8.37,0 Z" fill="none" stroke="#0f5c30" stroke-opacity="0.4" stroke-width="1.5"/>
    <path d="M 0,65.1 Q 135,55.8 90,37.2" fill="none" stroke="#22c55e" stroke-opacity="0.3" stroke-width="1"/>
    <circle cx="90" cy="37.2" r="2.5" fill="#22c55e" opacity="0.5"/>
</svg>