<svg width="780" height="220" viewBox="0 0 780 220" xmlns="http://www.w3.org/2000/svg" role="img">
  <defs>
    <clipPath id="clip-p0"><rect x="0" y="0" width="780" height="220" rx="22"/></clipPath>
    <linearGradient id="aur1-p0" x1="0" y1="0" x2="1" y2="0"><stop offset="0%" stop-color="#4c1c85" stop-opacity="0.35"/><stop offset="100%" stop-color="#4c1c85" stop-opacity="0"/></linearGradient>
    <linearGradient id="aur2-p0" x1="1" y1="0" x2="0" y2="1"><stop offset="0%" stop-color="#9333ea" stop-opacity="0.3"/><stop offset="100%" stop-color="#9333ea" stop-opacity="0"/></linearGradient></defs>
  
    <rect x="0" y="0" width="780" height="220" rx="22" fill="rgba(76,28,133,0.15)"/>
    <path d="M 0,44 Q 234,-22 468,33 T 780,11 L 780,0 L 0,0 Z" fill="url(#aur1-p0)"/>
    <path d="M 0,220 Q 312,252.99999999999997 546,187 T 780,220 Z" fill="url(#aur2-p0)"/>
  <g clip-path="url(#clip-p0)">
  <text x="30" y="30" font-family="'JetBrains Mono', ui-monospace, monospace" font-size="11" fill="#9333ea" letter-spacing="2">FEATURED PROJECT</text>
  <text x="30" y="66" font-family="Georgia, 'Cinzel Decorative', serif" font-size="34" font-weight="700" fill="#e9d9fb">Bikkerz.com</text>
  <rect x="30" y="82" width="60" height="3" fill="#4c1c85"/>
  <text x="30" y="112" font-family="'JetBrains Mono', ui-monospace, monospace" font-size="14" fill="#e9d9fb" opacity="0.82">Marketplace/service platform — backend development, database</text><text x="30" y="134" font-family="'JetBrains Mono', ui-monospace, monospace" font-size="14" fill="#e9d9fb" opacity="0.82">integration, authentication and application maintenance.</text>
  <text x="30" y="194" font-family="'JetBrains Mono', ui-monospace, monospace" font-size="12" fill="#9333ea" letter-spacing="1">LARAVEL   ·   MYSQL   ·   PHP</text>
  <circle cx="740" cy="40" r="6" fill="#9333ea"/>
  <text x="726" y="44" text-anchor="end" font-family="'JetBrains Mono', ui-monospace, monospace" font-size="10" fill="#e9d9fb" opacity="0.6" letter-spacing="1">LIVE</text>
  </g>
  <rect x="1" y="1" width="778" height="218" rx="21" fill="none" stroke="#9333ea" stroke-opacity="0.35" stroke-width="1"/>
</svg>