<svg width="900" height="328" viewBox="0 0 900 328" xmlns="http://www.w3.org/2000/svg" role="img">
  <defs><clipPath id="clip-p7"><path d="M 29.52,0 L 852.768,0 Q 900,0 900,29.52 L 900,298.48 Q 900,328 870.48,328 L 41.327999999999996,328 Q 0,328 0,289.624 L 0,29.52 Q 0,0 29.52,0 Z"/></clipPath><linearGradient id="org-grad-p7" x1="0" y1="0" x2="1" y2="1"><stop offset="0%" stop-color="#1f9d55" stop-opacity="0.12"/><stop offset="100%" stop-color="#4ade80" stop-opacity="0.04"/></linearGradient></defs>
  <path d="M 29.52,0 L 852.768,0 Q 900,0 900,29.52 L 900,298.48 Q 900,328 870.48,328 L 41.327999999999996,328 Q 0,328 0,289.624 L 0,29.52 Q 0,0 29.52,0 Z" fill="#04150c"/><path d="M 29.52,0 L 852.768,0 Q 900,0 900,29.52 L 900,298.48 Q 900,328 870.48,328 L 41.327999999999996,328 Q 0,328 0,289.624 L 0,29.52 Q 0,0 29.52,0 Z" fill="url(#org-grad-p7)"/>
  <g clip-path="url(#clip-p7)"><text x="30" y="44" font-family="'JetBrains Mono', ui-monospace, monospace" font-size="14" font-weight="700" fill="#4ade80" letter-spacing="1.5">BACKEND</text><rect x="198" y="12" width="50.599999999999994" height="32" rx="16" fill="rgba(31,157,85,0.08)" stroke="#1f9d55" stroke-opacity="0.45"/><text x="223.3" y="37" text-anchor="middle" font-family="'JetBrains Mono', ui-monospace, monospace" font-size="14" fill="#eefdf4">PHP</text><rect x="260.6" y="12" width="83.39999999999999" height="32" rx="16" fill="rgba(31,157,85,0.08)" stroke="#1f9d55" stroke-opacity="0.45"/><text x="302.3" y="37" text-anchor="middle" font-family="'JetBrains Mono', ui-monospace, monospace" font-size="14" fill="#eefdf4">Laravel</text><rect x="356" y="12" width="83.39999999999999" height="32" rx="16" fill="rgba(31,157,85,0.08)" stroke="#1f9d55" stroke-opacity="0.45"/><text x="397.7" y="37" text-anchor="middle" font-family="'JetBrains Mono', ui-monospace, monospace" font-size="14" fill="#eefdf4">Node.js</text><rect x="451.4" y="12" width="91.6" height="32" rx="16" fill="rgba(31,157,85,0.08)" stroke="#1f9d55" stroke-opacity="0.45"/><text x="497.2" y="37" text-anchor="middle" font-family="'JetBrains Mono', ui-monospace, monospace" font-size="14" fill="#eefdf4">REST API</text><text x="30" y="116" font-family="'JetBrains Mono', ui-monospace, monospace" font-size="14" font-weight="700" fill="#4ade80" letter-spacing="1.5">FRONTEND</text><rect x="198" y="84" width="108" height="32" rx="16" fill="rgba(31,157,85,0.08)" stroke="#1f9d55" stroke-opacity="0.45"/><text x="252" y="109" text-anchor="middle" font-family="'JetBrains Mono', ui-monospace, monospace" font-size="14" fill="#eefdf4">JavaScript</text><rect x="318" y="84" width="67" height="32" rx="16" fill="rgba(31,157,85,0.08)" stroke="#1f9d55" stroke-opacity="0.45"/><text x="351.5" y="109" text-anchor="middle" font-family="'JetBrains Mono', ui-monospace, monospace" font-size="14" fill="#eefdf4">React</text><rect x="397" y="84" width="124.39999999999999" height="32" rx="16" fill="rgba(31,157,85,0.08)" stroke="#1f9d55" stroke-opacity="0.45"/><text x="459.2" y="109" text-anchor="middle" font-family="'JetBrains Mono', ui-monospace, monospace" font-size="14" fill="#eefdf4">Tailwind CSS</text><rect x="533.4" y="84" width="58.8" height="32" rx="16" fill="rgba(31,157,85,0.08)" stroke="#1f9d55" stroke-opacity="0.45"/><text x="562.8" y="109" text-anchor="middle" font-family="'JetBrains Mono', ui-monospace, monospace" font-size="14" fill="#eefdf4">HTML</text><rect x="604.1999999999999" y="84" width="50.599999999999994" height="32" rx="16" fill="rgba(31,157,85,0.08)" stroke="#1f9d55" stroke-opacity="0.45"/><text x="629.4999999999999" y="109" text-anchor="middle" font-family="'JetBrains Mono', ui-monospace, monospace" font-size="14" fill="#eefdf4">CSS</text><text x="30" y="188" font-family="'JetBrains Mono', ui-monospace, monospace" font-size="14" font-weight="700" fill="#4ade80" letter-spacing="1.5">DATABASE</text><rect x="198" y="156" width="67" height="32" rx="16" fill="rgba(31,157,85,0.08)" stroke="#1f9d55" stroke-opacity="0.45"/><text x="231.5" y="181" text-anchor="middle" font-family="'JetBrains Mono', ui-monospace, monospace" font-size="14" fill="#eefdf4">MySQL</text><text x="30" y="260" font-family="'JetBrains Mono', ui-monospace, monospace" font-size="14" font-weight="700" fill="#4ade80" letter-spacing="1.5">TOOLS</text><rect x="198" y="228" width="50.599999999999994" height="32" rx="16" fill="rgba(31,157,85,0.08)" stroke="#1f9d55" stroke-opacity="0.45"/><text x="223.3" y="253" text-anchor="middle" font-family="'JetBrains Mono', ui-monospace, monospace" font-size="14" fill="#eefdf4">Git</text><rect x="260.6" y="228" width="67" height="32" rx="16" fill="rgba(31,157,85,0.08)" stroke="#1f9d55" stroke-opacity="0.45"/><text x="294.1" y="253" text-anchor="middle" font-family="'JetBrains Mono', ui-monospace, monospace" font-size="14" fill="#eefdf4">Linux</text><rect x="339.6" y="228" width="75.19999999999999" height="32" rx="16" fill="rgba(31,157,85,0.08)" stroke="#1f9d55" stroke-opacity="0.45"/><text x="377.20000000000005" y="253" text-anchor="middle" font-family="'JetBrains Mono', ui-monospace, monospace" font-size="14" fill="#eefdf4">Python</text></g>
  
    <path d="M 29.52,0 L 852.768,0 Q 900,0 900,29.52 L 900,298.48 Q 900,328 870.48,328 L 41.327999999999996,328 Q 0,328 0,289.624 L 0,29.52 Q 0,0 29.52,0 Z" fill="none" stroke="#1f9d55" stroke-opacity="0.4" stroke-width="1.5"/>
    <path d="M 0,229.6 Q 135,196.79999999999998 90,131.20000000000002" fill="none" stroke="#4ade80" stroke-opacity="0.3" stroke-width="1"/>
    <circle cx="90" cy="131.20000000000002" r="2.5" fill="#4ade80" opacity="0.5"/>
</svg>