<svg width="900" height="170" viewBox="0 0 900 170" xmlns="http://www.w3.org/2000/svg" role="img">
  <defs></defs>
  <rect x="0" y="0" width="900" height="170" fill="#020202"/><line x1="0" y1="0" x2="900" y2="0" stroke="#3d4148" stroke-opacity="0.035" stroke-width="1"/><line x1="0" y1="6" x2="900" y2="6" stroke="#3d4148" stroke-opacity="0.035" stroke-width="1"/><line x1="0" y1="12" x2="900" y2="12" stroke="#3d4148" stroke-opacity="0.035" stroke-width="1"/><line x1="0" y1="18" x2="900" y2="18" stroke="#3d4148" stroke-opacity="0.035" stroke-width="1"/><line x1="0" y1="24" x2="900" y2="24" stroke="#3d4148" stroke-opacity="0.035" stroke-width="1"/><line x1="0" y1="30" x2="900" y2="30" stroke="#3d4148" stroke-opacity="0.035" stroke-width="1"/><line x1="0" y1="36" x2="900" y2="36" stroke="#3d4148" stroke-opacity="0.035" stroke-width="1"/><line x1="0" y1="42" x2="900" y2="42" stroke="#3d4148" stroke-opacity="0.035" stroke-width="1"/><line x1="0" y1="48" x2="900" y2="48" stroke="#3d4148" stroke-opacity="0.035" stroke-width="1"/><line x1="0" y1="54" x2="900" y2="54" stroke="#3d4148" stroke-opacity="0.035" stroke-width="1"/><line x1="0" y1="60" x2="900" y2="60" stroke="#3d4148" stroke-opacity="0.035" stroke-width="1"/><line x1="0" y1="66" x2="900" y2="66" stroke="#3d4148" stroke-opacity="0.035" stroke-width="1"/><line x1="0" y1="72" x2="900" y2="72" stroke="#3d4148" stroke-opacity="0.035" stroke-width="1"/><line x1="0" y1="78" x2="900" y2="78" stroke="#3d4148" stroke-opacity="0.035" stroke-width="1"/><line x1="0" y1="84" x2="900" y2="84" stroke="#3d4148" stroke-opacity="0.035" stroke-width="1"/><line x1="0" y1="90" x2="900" y2="90" stroke="#3d4148" stroke-opacity="0.035" stroke-width="1"/><line x1="0" y1="96" x2="900" y2="96" stroke="#3d4148" stroke-opacity="0.035" stroke-width="1"/><line x1="0" y1="102" x2="900" y2="102" stroke="#3d4148" stroke-opacity="0.035" stroke-width="1"/><line x1="0" y1="108" x2="900" y2="108" stroke="#3d4148" stroke-opacity="0.035" stroke-width="1"/><line x1="0" y1="114" x2="900" y2="114" stroke="#3d4148" stroke-opacity="0.035" stroke-width="1"/><line x1="0" y1="120" x2="900" y2="120" stroke="#3d4148" stroke-opacity="0.035" stroke-width="1"/><line x1="0" y1="126" x2="900" y2="126" stroke="#3d4148" stroke-opacity="0.035" stroke-width="1"/><line x1="0" y1="132" x2="900" y2="132" stroke="#3d4148" stroke-opacity="0.035" stroke-width="1"/><line x1="0" y1="138" x2="900" y2="138" stroke="#3d4148" stroke-opacity="0.035" stroke-width="1"/><line x1="0" y1="144" x2="900" y2="144" stroke="#3d4148" stroke-opacity="0.035" stroke-width="1"/><line x1="0" y1="150" x2="900" y2="150" stroke="#3d4148" stroke-opacity="0.035" stroke-width="1"/><line x1="0" y1="156" x2="900" y2="156" stroke="#3d4148" stroke-opacity="0.035" stroke-width="1"/><line x1="0" y1="162" x2="900" y2="162" stroke="#3d4148" stroke-opacity="0.035" stroke-width="1"/>
  <defs><linearGradient id="tlgrad" x1="0" y1="0" x2="1" y2="1"><stop offset="0%" stop-color="#3d4148"/><stop offset="100%" stop-color="#6b7280"/></linearGradient></defs>
    <circle cx="245" cy="50" r="7" fill="url(#tlgrad)"/>
    <line x1="253" y1="50" x2="647" y2="50" stroke="#3d4148" stroke-opacity="0.4" stroke-width="2"/>
    <text x="245" y="82" text-anchor="middle" font-family="Georgia, 'Cinzel Decorative', serif" font-size="14" font-weight="700" fill="#d7dade">Full Stack Developer</text>
    <text x="245" y="100" text-anchor="middle" font-family="'JetBrains Mono', ui-monospace, monospace" font-size="10.5" fill="#6b7280">ONEPIXEL TECHNOLOGIES</text>
    <text x="245" y="116" text-anchor="middle" font-family="'JetBrains Mono', ui-monospace, monospace" font-size="10" fill="#d7dade" opacity="0.65">Jul 2025 – Present</text>
    <circle cx="655" cy="50" r="7" fill="url(#tlgrad)"/>
    
    <text x="655" y="82" text-anchor="middle" font-family="Georgia, 'Cinzel Decorative', serif" font-size="14" font-weight="700" fill="#d7dade">Software Intern</text>
    <text x="655" y="100" text-anchor="middle" font-family="'JetBrains Mono', ui-monospace, monospace" font-size="10.5" fill="#6b7280">ONEPIXEL TECHNOLOGIES</text>
    <text x="655" y="116" text-anchor="middle" font-family="'JetBrains Mono', ui-monospace, monospace" font-size="10" fill="#d7dade" opacity="0.65">Jan 2025 – Jun 2025</text>
  
    <rect x="1" y="1" width="898" height="168" fill="none" stroke="#6b7280" stroke-width="1" stroke-opacity="0.6"/>
    <rect x="874" y="6" width="14" height="3" fill="#6b7280" opacity="0.7"/>
    <rect x="858" y="6" width="8" height="3" fill="#3d4148" opacity="0.5"/>
    <text x="8" y="164" font-family="'JetBrains Mono', ui-monospace, monospace" font-size="8" fill="#6b7280" opacity="0.5">0x02</text>
    <path d="M 0,0 L 12,0 L 12,2 L 2,2 L 2,12 L 0,12 Z" fill="#6b7280" opacity="0.8"/>
    <path d="M 900,170 L 888,170 L 888,168 L 898,168 L 898,158 L 900,158 Z" fill="#6b7280" opacity="0.8"/>
</svg>