<svg width="900" height="170" viewBox="0 0 900 170" xmlns="http://www.w3.org/2000/svg" role="img">
  <defs>
    <clipPath id="clip-p6"><rect x="0" y="0" width="900" height="170" rx="22"/></clipPath>
    <linearGradient id="aur1-p6" x1="0" y1="0" x2="1" y2="0"><stop offset="0%" stop-color="#4c1c85" stop-opacity="0.35"/><stop offset="100%" stop-color="#4c1c85" stop-opacity="0"/></linearGradient>
    <linearGradient id="aur2-p6" x1="1" y1="0" x2="0" y2="1"><stop offset="0%" stop-color="#9333ea" stop-opacity="0.3"/><stop offset="100%" stop-color="#9333ea" stop-opacity="0"/></linearGradient></defs>
  
    <rect x="0" y="0" width="900" height="170" rx="22" fill="rgba(76,28,133,0.15)"/>
    <path d="M 0,34 Q 270,-17 540,25.5 T 900,8.5 L 900,0 L 0,0 Z" fill="url(#aur1-p6)"/>
    <path d="M 0,170 Q 360,195.49999999999997 630,144.5 T 900,170 Z" fill="url(#aur2-p6)"/>
  <g clip-path="url(#clip-p6)"><defs><linearGradient id="tlgrad" x1="0" y1="0" x2="1" y2="1"><stop offset="0%" stop-color="#4c1c85"/><stop offset="100%" stop-color="#9333ea"/></linearGradient></defs>
    <circle cx="245" cy="50" r="7" fill="url(#tlgrad)"/>
    <line x1="253" y1="50" x2="647" y2="50" stroke="#4c1c85" stroke-opacity="0.4" stroke-width="2"/>
    <text x="245" y="82" text-anchor="middle" font-family="Georgia, 'Cinzel Decorative', serif" font-size="14" font-weight="700" fill="#e9d9fb">Full Stack Developer</text>
    <text x="245" y="100" text-anchor="middle" font-family="'JetBrains Mono', ui-monospace, monospace" font-size="10.5" fill="#9333ea">ONEPIXEL TECHNOLOGIES</text>
    <text x="245" y="116" text-anchor="middle" font-family="'JetBrains Mono', ui-monospace, monospace" font-size="10" fill="#e9d9fb" opacity="0.65">Jul 2025 – Present</text>
    <circle cx="655" cy="50" r="7" fill="url(#tlgrad)"/>
    
    <text x="655" y="82" text-anchor="middle" font-family="Georgia, 'Cinzel Decorative', serif" font-size="14" font-weight="700" fill="#e9d9fb">Software Intern</text>
    <text x="655" y="100" text-anchor="middle" font-family="'JetBrains Mono', ui-monospace, monospace" font-size="10.5" fill="#9333ea">ONEPIXEL TECHNOLOGIES</text>
    <text x="655" y="116" text-anchor="middle" font-family="'JetBrains Mono', ui-monospace, monospace" font-size="10" fill="#e9d9fb" opacity="0.65">Jan 2025 – Jun 2025</text></g>
  <rect x="1" y="1" width="898" height="168" rx="21" fill="none" stroke="#9333ea" stroke-opacity="0.35" stroke-width="1"/>
</svg>