<svg width="1200" height="330" viewBox="0 0 1200 330" xmlns="http://www.w3.org/2000/svg" role="img" aria-label="profile hero">
  
  
  <rect width="1200" height="330" fill="#120a1a"/>
  
  <rect width="1200" height="30" fill="#120a1a" fill-opacity="0.9"/>
  <line x1="0" y1="30" x2="1200" y2="30" stroke="#8b3fd6" stroke-opacity="0.3"/>
  <circle cx="20" cy="15" r="5" fill="#ff5f56" opacity="0.85"/>
  <circle cx="38" cy="15" r="5" fill="#ffbd2e" opacity="0.85"/>
  <circle cx="56" cy="15" r="5" fill="#27c93f" opacity="0.85"/>
  <text x="80" y="19" font-family="'JetBrains Mono', ui-monospace, monospace" font-size="12" fill="#f6edff" opacity="0.55">visitor@vijay-dev-s:~$ whoami · violet · day</text>
  <g transform="translate(0,30)">
  
  
  <defs>
    <linearGradient id="grad-saturday-day" x1="0%" y1="0%" x2="100%" y2="100%">
      <stop offset="0%" stop-color="#8b3fd6"/>
      <stop offset="100%" stop-color="#c86bff"/>
    </linearGradient>
    <radialGradient id="glow-saturday-day" cx="50%" cy="50%" r="50%">
      <stop offset="0%" stop-color="rgba(139,63,214,0.45)" stop-opacity="0.9"/>
      <stop offset="100%" stop-color="rgba(139,63,214,0.45)" stop-opacity="0"/>
    </radialGradient>
    <filter id="blur-saturday-day"><feGaussianBlur stdDeviation="18"/></filter>
  </defs>
  <circle cx="1080" cy="60" r="180" fill="url(#glow-saturday-day)" filter="url(#blur-saturday-day)"/>
  <polygon points="40,20 90,45 60,75" fill="#8b3fd6" fill-opacity="0.16" stroke="#c86bff" stroke-opacity="0.3" stroke-width="0.75"/><polygon points="1140,15 1180,55 1120,60" fill="#8b3fd6" fill-opacity="0.16" stroke="#c86bff" stroke-opacity="0.3" stroke-width="0.75"/><polygon points="1160,200 1195,240 1140,260" fill="#8b3fd6" fill-opacity="0.16" stroke="#c86bff" stroke-opacity="0.3" stroke-width="0.75"/><polygon points="15,220 55,260 10,270" fill="#8b3fd6" fill-opacity="0.16" stroke="#c86bff" stroke-opacity="0.3" stroke-width="0.75"/>
  <text x="48" y="55" font-family="Georgia, 'Cinzel Decorative', serif" font-size="26" font-weight="700" fill="#f6edff">Vijay S — Dashboard</text>
  <polygon points="48,95 308,85 298,175 56,175" fill="rgba(139,63,214,0.09)" stroke="#8b3fd6" stroke-opacity="0.5"/>
    <text x="68" y="118" font-family="'JetBrains Mono', ui-monospace, monospace" font-size="15" fill="#c86bff" letter-spacing="1">NAME</text>
    <text x="68" y="150" font-family="Georgia, 'Cinzel Decorative', serif" font-size="17" font-weight="700" fill="#f6edff">Vijay S</text><polygon points="328,95 588,85 578,175 336,175" fill="rgba(139,63,214,0.09)" stroke="#8b3fd6" stroke-opacity="0.5"/>
    <text x="348" y="118" font-family="'JetBrains Mono', ui-monospace, monospace" font-size="15" fill="#c86bff" letter-spacing="1">ROLE</text>
    <text x="348" y="150" font-family="Georgia, 'Cinzel Decorative', serif" font-size="17" font-weight="700" fill="#f6edff">Full Stack Developer</text><polygon points="608,95 868,85 858,175 616,175" fill="rgba(139,63,214,0.09)" stroke="#8b3fd6" stroke-opacity="0.5"/>
    <text x="628" y="118" font-family="'JetBrains Mono', ui-monospace, monospace" font-size="15" fill="#c86bff" letter-spacing="1">THEME</text>
    <text x="628" y="150" font-family="Georgia, 'Cinzel Decorative', serif" font-size="17" font-weight="700" fill="#f6edff">Violet</text><polygon points="888,95 1148,85 1138,175 896,175" fill="rgba(139,63,214,0.09)" stroke="#8b3fd6" stroke-opacity="0.5"/>
    <text x="908" y="118" font-family="'JetBrains Mono', ui-monospace, monospace" font-size="15" fill="#c86bff" letter-spacing="1">MODE</text>
    <text x="908" y="150" font-family="Georgia, 'Cinzel Decorative', serif" font-size="17" font-weight="700" fill="#f6edff">DAY</text>
  <polygon points="48,192 1152,198 1148,255 52,253" fill="rgba(139,63,214,0.09)" stroke="#8b3fd6" stroke-opacity="0.35"/>
  <text x="68" y="228" font-family="Georgia, 'Cinzel Decorative', serif" font-style="italic" font-size="15" fill="#f6edff" opacity="0.8">"Destruction is the purest form of joy I know."</text>
  
  </g>
  <rect x="1" y="1" width="1198" height="328" rx="22" fill="none" stroke="#c86bff" stroke-opacity="0.4" stroke-width="1.5"/>
</svg>